<?xml version="1.0" encoding="UTF-8" standalone="no"?>
<!DOCTYPE svg PUBLIC "-//W3C//DTD SVG 1.0//EN" "http://www.w3.org/TR/2001/PR-SVG-20010719/DTD/svg10.dtd">
<svg width="31cm" height="23cm" viewBox="78 18 603 443" xmlns="http://www.w3.org/2000/svg" xmlns:xlink="http://www.w3.org/1999/xlink">
  <g>
    <rect style="fill: #ffffff" x="80" y="20" width="600" height="440"/>
    <rect style="fill: none; fill-opacity:0; stroke-width: 2; stroke: #ffffff" x="80" y="20" width="600" height="440"/>
  </g>
  <g>
    <rect style="fill: #359bc0" x="100" y="40" width="380" height="300" rx="10" ry="10"/>
    <rect style="fill: none; fill-opacity:0; stroke-width: 2; stroke-linejoin: round; stroke: #335b77" x="100" y="40" width="380" height="300" rx="10" ry="10"/>
  </g>
  <g>
    <rect style="fill: #335b77" x="500" y="40" width="160" height="300" rx="10" ry="10"/>
    <rect style="fill: none; fill-opacity:0; stroke-width: 2; stroke-linejoin: round; stroke: #335b77" x="500" y="40" width="160" height="300" rx="10" ry="10"/>
  </g>
  <g>
    <rect style="fill: #2a2a2a" x="100" y="360" width="560" height="80" rx="10" ry="10"/>
    <rect style="fill: none; fill-opacity:0; stroke-width: 2; stroke-linejoin: round; stroke: #335b77" x="100" y="360" width="560" height="80" rx="10" ry="10"/>
  </g>
  <g>
    <rect style="fill: #578142" x="120" y="100" width="120" height="220" rx="5" ry="5"/>
    <rect style="fill: none; fill-opacity:0; stroke-width: 2; stroke-linejoin: round; stroke: #335b77" x="120" y="100" width="120" height="220" rx="5" ry="5"/>
  </g>
  <g>
    <rect style="fill: #335b77" x="268" y="93" width="8" height="230"/>
    <rect style="fill: none; fill-opacity:0; stroke-width: 0.2; stroke: #335b77" x="268" y="93" width="8" height="230"/>
  </g>
  <g>
    <rect style="fill: #578142" x="300" y="120" width="160" height="80" rx="5" ry="5"/>
    <rect style="fill: none; fill-opacity:0; stroke-width: 2; stroke-linejoin: round; stroke: #335b77" x="300" y="120" width="160" height="80" rx="5" ry="5"/>
  </g>
  <g>
    <rect style="fill: #578142" x="300" y="220" width="160" height="80" rx="5" ry="5"/>
    <rect style="fill: none; fill-opacity:0; stroke-width: 2; stroke-linejoin: round; stroke: #335b77" x="300" y="220" width="160" height="80" rx="5" ry="5"/>
  </g>
  <text font-size="16.9333" style="fill: #ffffff;text-anchor:middle;font-family:Verdana;font-style:normal;font-weight:700" x="180" y="206.725">
    <tspan x="180" y="206.725">PSy Layer</tspan>
  </text>
  <text font-size="16.9333" style="fill: #ffffff;text-anchor:middle;font-family:Verdana;font-style:normal;font-weight:700" x="380" y="166.725">
    <tspan x="380" y="166.725">Algorithms</tspan>
  </text>
  <text font-size="16.9333" style="fill: #ffffff;text-anchor:middle;font-family:Verdana;font-style:normal;font-weight:700" x="380" y="266.725">
    <tspan x="380" y="266.725">Kernels</tspan>
  </text>
  <text font-size="19.7556" style="fill: #ffffff;text-anchor:middle;font-family:Verdana;font-style:normal;font-weight:700" x="580" y="67.875">
    <tspan x="580" y="67.875">Driver</tspan>
  </text>
  <g>
    <rect style="fill: #e2a022" x="520" y="100" width="120" height="60" rx="5" ry="5"/>
    <rect style="fill: none; fill-opacity:0; stroke-width: 2; stroke-linejoin: round; stroke: #335b77" x="520" y="100" width="120" height="60" rx="5" ry="5"/>
  </g>
  <g>
    <rect style="fill: #e2a022" x="520" y="180" width="120" height="60" rx="5" ry="5"/>
    <rect style="fill: none; fill-opacity:0; stroke-width: 2; stroke-linejoin: round; stroke: #335b77" x="520" y="180" width="120" height="60" rx="5" ry="5"/>
  </g>
  <g>
    <rect style="fill: #e2a022" x="520" y="260" width="120" height="60" rx="5" ry="5"/>
    <rect style="fill: none; fill-opacity:0; stroke-width: 2; stroke-linejoin: round; stroke: #335b77" x="520" y="260" width="120" height="60" rx="5" ry="5"/>
  </g>
  <text font-size="16.9333" style="fill: #ffffff;text-anchor:middle;font-family:Verdana;font-style:normal;font-weight:700" x="580" y="136.4">
    <tspan x="580" y="136.4">Initialise</tspan>
  </text>
  <text font-size="16.9333" style="fill: #ffffff;text-anchor:middle;font-family:Verdana;font-style:normal;font-weight:700" x="580" y="216.4">
    <tspan x="580" y="216.4">Run</tspan>
  </text>
  <text font-size="16.9333" style="fill: #ffffff;text-anchor:middle;font-family:Verdana;font-style:normal;font-weight:700" x="580" y="296.4">
    <tspan x="580" y="296.4">Finalise</tspan>
  </text>
  <text font-size="19.7556" style="fill: #ffffff;text-anchor:middle;font-family:Verdana;font-style:normal;font-weight:700" x="380" y="395.528">
    <tspan x="380" y="395.528">Infrastructure</tspan>
    <tspan x="380" y="420.222">e.g. halo_exchange</tspan>
  </text>
  <g>
    <line style="fill: none; fill-opacity:0; stroke-width: 6; stroke-linejoin: round; stroke: #e2a022" x1="512" y1="160" x2="454.208" y2="160"/>
    <polygon style="fill: #e2a022" points="446.708,160 456.708,155 454.208,160 456.708,165 "/>
    <polygon style="fill: none; fill-opacity:0; stroke-width: 6; stroke: #e2a022" points="446.708,160 456.708,155 454.208,160 456.708,165 "/>
  </g>
  <g>
    <line style="fill: none; fill-opacity:0; stroke-width: 6; stroke: #e2a022" x1="200" y1="260" x2="313.792" y2="260"/>
    <polygon style="fill: #e2a022" points="321.292,260 311.292,265 313.792,260 311.292,255 "/>
    <polygon style="fill: none; fill-opacity:0; stroke-width: 6; stroke: #e2a022" points="321.292,260 311.292,265 313.792,260 311.292,255 "/>
  </g>
  <g>
    <line style="fill: none; fill-opacity:0; stroke-width: 6; stroke: #e2a022" x1="180" y1="300" x2="180" y2="385.792"/>
    <polygon style="fill: #e2a022" points="180,393.292 175,383.292 180,385.792 185,383.292 "/>
    <polygon style="fill: none; fill-opacity:0; stroke-width: 6; stroke: #e2a022" points="180,393.292 175,383.292 180,385.792 185,383.292 "/>
  </g>
  <g>
    <line style="fill: none; fill-opacity:0; stroke-width: 6; stroke: #e2a022" x1="580" y1="330" x2="580" y2="385.792"/>
    <polygon style="fill: #e2a022" points="580,393.292 575,383.292 580,385.792 585,383.292 "/>
    <polygon style="fill: none; fill-opacity:0; stroke-width: 6; stroke: #e2a022" points="580,393.292 575,383.292 580,385.792 585,383.292 "/>
  </g>
  <text font-size="19.7556" style="fill: #ffffff;text-anchor:middle;font-family:Verdana;font-style:normal;font-weight:700" x="300" y="67.875">
    <tspan x="300" y="67.875">Model</tspan>
  </text>
  <g>
    <line style="fill: none; fill-opacity:0; stroke-width: 6; stroke: #e2a022" x1="320" y1="160" x2="214.208" y2="160"/>
    <polygon style="fill: #e2a022" points="206.708,160 216.708,155 214.208,160 216.708,165 "/>
    <polygon style="fill: none; fill-opacity:0; stroke-width: 6; stroke: #e2a022" points="206.708,160 216.708,155 214.208,160 216.708,165 "/>
  </g>
</svg>
